<svg width="20" height="20" xmlns="http://www.w3.org/2000/svg" xmlns:xlink="http://www.w3.org/1999/xlink"><defs><path d="M5.154 14.566h12.574c.476 0 .872-.413.872-.933v-11.3c0-.52-.396-.933-.872-.933H2.272c-.476 0-.872.413-.872.932v15.741a.2.2 0 0 0 .346.137l3.408-3.644zm.521 1.2L2.623 19.03A1.4 1.4 0 0 1 .2 18.073V2.333C.2 1.16 1.123.2 2.272.2h15.456c1.15 0 2.072.96 2.072 2.132v11.301c0 1.172-.923 2.133-2.072 2.133H5.675z" id="a"/></defs><g fill="none" fill-rule="evenodd"><mask id="b" fill="#fff"><use xlink:href="#a"/></mask><use fill="#979797" fill-rule="nonzero" xlink:href="#a"/><g mask="url(#b)" fill="#687089"><path d="M0 0h20v20H0z"/></g></g></svg>